<?xml version="1.0" encoding="UTF-8"?>
<!DOCTYPE svg PUBLIC "-//W3C//DTD SVG 1.1//EN" "http://www.w3.org/Graphics/SVG/1.1/DTD/svg11.dtd">
<svg xmlns="http://www.w3.org/2000/svg" version="1.1" width="65px" height="65px" style="shape-rendering:geometricPrecision; text-rendering:geometricPrecision; image-rendering:optimizeQuality; fill-rule:evenodd; clip-rule:evenodd" xmlns:xlink="http://www.w3.org/1999/xlink">
<g><path style="opacity:0.918" fill="#8c8d8c" d="M 25.5,2.5 C 49.9747,2.14083 61.808,14.1408 61,38.5C 55.197,55.4861 43.3636,62.9861 25.5,61C 8.62416,55.1217 1.12416,43.2883 3,25.5C 6.68399,13.9837 14.184,6.31707 25.5,2.5 Z M 30.5,13.5 C 31.552,13.3505 32.552,13.5172 33.5,14C 39.5,20 45.5,26 51.5,32C 49.6499,34.0176 47.6499,35.8509 45.5,37.5C 42.5,34.8333 39.5,32.1667 36.5,29.5C 36.5686,35.9934 36.4019,42.66 36,49.5C 33.3333,50.8333 30.6667,50.8333 28,49.5C 27.2073,43.1151 27.374,36.7818 28.5,30.5C 27.9984,29.479 27.3317,29.3123 26.5,30C 23.9841,32.6833 21.3174,35.1833 18.5,37.5C 16.2946,36.1293 14.628,34.296 13.5,32C 18.9916,25.675 24.6583,19.5083 30.5,13.5 Z"/></g>
</svg>
